<svg width="92" height="28" viewBox="0 0 92 28" fill="none" xmlns="http://www.w3.org/2000/svg">
<path d="M8.112 21.48C6.736 21.48 5.504 21.16 4.416 20.52C3.328 19.88 2.48 19 1.872 17.88C1.264 16.728 0.96 15.448 0.96 14.04C0.96 12.664 1.264 11.432 1.872 10.344C2.48 9.256 3.328 8.408 4.416 7.8C5.504 7.16 6.736 6.84 8.112 6.84C9.008 6.84 9.808 6.984 10.512 7.272C11.216 7.56 11.824 7.96 12.336 8.472V1.752C12.336 1.208 12.496 0.807999 12.816 0.551999C13.168 0.263999 13.552 0.119998 13.968 0.119998C14.384 0.119998 14.752 0.263999 15.072 0.551999C15.424 0.807999 15.6 1.208 15.6 1.752V19.992C15.6 20.472 15.424 20.84 15.072 21.096C14.752 21.352 14.384 21.48 13.968 21.48C13.552 21.48 13.168 21.352 12.816 21.096C12.496 20.84 12.336 20.472 12.336 19.992V19.8C11.824 20.312 11.216 20.712 10.512 21C9.808 21.32 9.008 21.48 8.112 21.48ZM8.4 18.504C9.616 18.504 10.576 18.104 11.28 17.304C11.984 16.472 12.336 15.384 12.336 14.04C12.336 12.76 11.984 11.736 11.28 10.968C10.576 10.2 9.616 9.816 8.4 9.816C7.152 9.816 6.144 10.2 5.376 10.968C4.608 11.736 4.224 12.76 4.224 14.04C4.224 15.384 4.608 16.472 5.376 17.304C6.144 18.104 7.152 18.504 8.4 18.504ZM25.6969 21.48C24.2889 21.48 23.0089 21.16 21.8569 20.52C20.7369 19.88 19.8569 19 19.2169 17.88C18.5769 16.728 18.2569 15.448 18.2569 14.04C18.2569 12.664 18.5769 11.432 19.2169 10.344C19.8569 9.256 20.7369 8.408 21.8569 7.8C23.0089 7.16 24.2889 6.84 25.6969 6.84C27.1049 6.84 28.3689 7.16 29.4889 7.8C30.6089 8.408 31.4889 9.256 32.1289 10.344C32.8009 11.432 33.1369 12.664 33.1369 14.04C33.1369 15.448 32.8009 16.728 32.1289 17.88C31.4889 19 30.6089 19.88 29.4889 20.52C28.3689 21.16 27.1049 21.48 25.6969 21.48ZM25.6969 18.504C26.9449 18.504 27.9529 18.104 28.7209 17.304C29.4889 16.472 29.8729 15.384 29.8729 14.04C29.8729 12.76 29.4889 11.736 28.7209 10.968C27.9529 10.2 26.9449 9.816 25.6969 9.816C24.4169 9.816 23.3929 10.2 22.6249 10.968C21.8889 11.736 21.5209 12.76 21.5209 14.04C21.5209 15.384 21.8889 16.472 22.6249 17.304C23.3929 18.104 24.4169 18.504 25.6969 18.504ZM48.0461 21.48C47.6301 21.48 47.2461 21.352 46.8941 21.096C46.5741 20.84 46.4141 20.472 46.4141 19.992V13.944C46.4141 12.536 46.0941 11.496 45.4541 10.824C44.8461 10.152 44.0301 9.816 43.0061 9.816C41.6941 9.816 40.7341 10.248 40.1261 11.112C39.5501 11.944 39.2621 12.872 39.2621 13.896V19.992C39.2621 20.472 39.0861 20.84 38.7341 21.096C38.4141 21.352 38.0461 21.48 37.6301 21.48C37.2141 21.48 36.8301 21.352 36.4781 21.096C36.1581 20.84 35.9981 20.472 35.9981 19.992V8.712C35.9981 8.168 36.1581 7.768 36.4781 7.512C36.8301 7.224 37.2141 7.08 37.6301 7.08C38.0461 7.08 38.4141 7.224 38.7341 7.512C39.0861 7.768 39.2621 8.168 39.2621 8.712C39.8061 8.168 40.5101 7.72 41.3741 7.368C42.2381 7.016 43.0541 6.84 43.8221 6.84C45.6141 6.84 47.0381 7.416 48.0941 8.568C49.1501 9.72 49.6781 11.416 49.6781 13.656V19.992C49.6781 20.472 49.5021 20.84 49.1501 21.096C48.7981 21.352 48.4301 21.48 48.0461 21.48ZM59.199 27.72C58.527 27.72 57.775 27.656 56.943 27.528C56.111 27.4 55.295 27.128 54.495 26.712C53.887 26.392 53.583 25.896 53.583 25.224C53.583 24.84 53.711 24.488 53.967 24.168C54.255 23.848 54.607 23.688 55.023 23.688C55.311 23.688 55.599 23.768 55.887 23.928C56.495 24.248 57.103 24.472 57.711 24.6C58.319 24.728 58.911 24.792 59.487 24.792C60.639 24.792 61.631 24.488 62.463 23.88C63.295 23.304 63.711 22.376 63.711 21.096V19.752C63.167 20.296 62.527 20.712 61.791 21C61.087 21.32 60.287 21.48 59.391 21.48C58.079 21.48 56.879 21.16 55.791 20.52C54.735 19.88 53.887 19 53.247 17.88C52.639 16.76 52.335 15.496 52.335 14.088C52.335 12.68 52.639 11.416 53.247 10.296C53.855 9.176 54.687 8.296 55.743 7.656C56.799 7.016 57.999 6.744 59.343 6.84C60.271 6.904 61.087 7.096 61.791 7.416C62.527 7.704 63.167 8.104 63.711 8.616C63.711 8.168 63.855 7.8 64.143 7.512C64.463 7.224 64.863 7.08 65.343 7.08C65.823 7.08 66.207 7.224 66.495 7.512C66.815 7.8 66.975 8.168 66.975 8.616V21.192C66.975 22.664 66.623 23.88 65.919 24.84C65.247 25.832 64.319 26.552 63.135 27C61.951 27.48 60.639 27.72 59.199 27.72ZM59.775 18.504C60.991 18.504 61.951 18.104 62.655 17.304C63.359 16.472 63.711 15.384 63.711 14.04C63.711 12.76 63.359 11.736 62.655 10.968C61.951 10.2 60.991 9.816 59.775 9.816C58.527 9.816 57.519 10.2 56.751 10.968C55.983 11.736 55.599 12.776 55.599 14.088C55.599 15.368 55.967 16.424 56.703 17.256C57.471 18.088 58.495 18.504 59.775 18.504ZM72.4583 21.48C72.0423 21.48 71.6583 21.352 71.3063 21.096C70.9863 20.84 70.8263 20.472 70.8263 19.992V1.752C70.8263 1.208 70.9863 0.807999 71.3063 0.551999C71.6583 0.263999 72.0423 0.119998 72.4583 0.119998C72.8743 0.119998 73.2423 0.263999 73.5623 0.551999C73.9143 0.807999 74.0903 1.208 74.0903 1.752V19.992C74.0903 20.472 73.9143 20.84 73.5623 21.096C73.2423 21.352 72.8743 21.48 72.4583 21.48ZM84.717 21.48C82.317 21.48 80.445 20.792 79.101 19.416C77.757 18.04 77.085 16.184 77.085 13.848C77.085 11.8 77.757 10.12 79.101 8.808C80.477 7.496 82.237 6.84 84.381 6.84C86.461 6.84 88.125 7.448 89.373 8.664C90.621 9.848 91.245 11.32 91.245 13.08C91.245 13.784 91.053 14.312 90.669 14.664C90.317 15.016 89.853 15.192 89.277 15.192H80.925C80.605 15.192 80.493 15.368 80.589 15.72C80.845 16.616 81.357 17.32 82.125 17.832C82.925 18.312 83.821 18.552 84.813 18.552C85.549 18.552 86.253 18.456 86.925 18.264C87.629 18.072 88.237 17.784 88.749 17.4C88.909 17.272 89.117 17.208 89.373 17.208C89.725 17.208 90.045 17.368 90.333 17.688C90.621 17.976 90.765 18.328 90.765 18.744C90.765 18.936 90.733 19.128 90.669 19.32C90.605 19.512 90.461 19.704 90.237 19.896C89.405 20.504 88.509 20.92 87.549 21.144C86.621 21.368 85.677 21.48 84.717 21.48ZM87.501 12.696C87.693 12.696 87.789 12.6 87.789 12.408C87.789 11.672 87.453 11.032 86.781 10.488C86.141 9.944 85.341 9.672 84.381 9.672C83.549 9.672 82.749 9.896 81.981 10.344C81.245 10.792 80.797 11.384 80.637 12.12C80.637 12.12 80.637 12.136 80.637 12.168C80.605 12.296 80.589 12.408 80.589 12.504C80.621 12.6 80.765 12.648 81.021 12.648L87.501 12.696Z" fill="white"/>
</svg>
